<svg xmlns="http://www.w3.org/2000/svg" viewBox="0 0 512 512" width="512" height="512">
  <defs>
    <linearGradient id="g" x1="0" y1="0" x2="1" y2="1">
      <stop offset="0" stop-color="#8b5cf6"/>
      <stop offset="1" stop-color="#06b6d4"/>
    </linearGradient>
  </defs>
  <rect width="512" height="512" rx="112" fill="#0a0a0f"/>
  <rect width="512" height="512" rx="112" fill="url(#g)" opacity="0.14"/>
  <g transform="translate(256 268)" fill="url(#g)">
    <path d="M0-150 C60-110 120-96 150-40 C110-58 78-58 52-44 C92-10 104 40 84 92 C64 56 40 40 12 36 C18 84 2 128 -40 156 C-30 108 -38 78 -58 56 C-104 84 -150 82 -190 60 C-146 52 -120 34 -108 4 C-150-12 -168-56 -160-104 C-128-70 -96-62 -66-70 C-70-118 -44-146 0-150 Z"/>
    <circle cx="34" cy="-70" r="12" fill="#0a0a0f"/>
  </g>
</svg>
